<svg xmlns="http://www.w3.org/2000/svg" viewBox="0 0 160 160"><defs><style>.cls-1{fill:#fa4138;}</style></defs><g id="Layer_2" data-name="Layer 2"><g id="Layer_1-2" data-name="Layer 1"><path class="cls-1" d="M80,160A80,80,0,1,1,119.93,10.66a3.44,3.44,0,0,1,1.26,4.69,3.48,3.48,0,0,1-3,1.71,3.39,3.39,0,0,1-1.7-.46A73.15,73.15,0,1,0,153.14,80a73.88,73.88,0,0,0-.65-9.77,72.39,72.39,0,0,0-9.1-26.73,3.44,3.44,0,0,1,3-5.15,3.47,3.47,0,0,1,3,1.72,81,81,0,0,1,5.33,11.16,79.73,79.73,0,0,1,4.62,18.09A80,80,0,0,1,80,160Z"/><path class="cls-1" d="M105.52,109a3.4,3.4,0,0,1-2.42-1L81.18,86a1.67,1.67,0,0,0-2.36,0L56.9,108a3.44,3.44,0,0,1-4.85,0,3.45,3.45,0,0,1,0-4.85L74,81.18a1.67,1.67,0,0,0,0-2.36L52.05,56.9a3.45,3.45,0,0,1,0-4.85,3.44,3.44,0,0,1,4.85,0L78.82,74a1.67,1.67,0,0,0,2.36,0L103.1,52.05a3.44,3.44,0,0,1,4.85,0,3.45,3.45,0,0,1,0,4.85L86,78.82a1.67,1.67,0,0,0,0,2.36L108,103.1a3.45,3.45,0,0,1,0,4.85A3.4,3.4,0,0,1,105.52,109Z"/></g></g></svg>